<?xml version="1.0" encoding="UTF-8" standalone="no"?><!DOCTYPE svg PUBLIC "-//W3C//DTD SVG 1.1//EN" "http://www.w3.org/Graphics/SVG/1.1/DTD/svg11.dtd"><svg width="100%" height="100%" viewBox="0 0 259 177" version="1.1" xmlns="http://www.w3.org/2000/svg" xmlns:xlink="http://www.w3.org/1999/xlink" xml:space="preserve" xmlns:serif="http://www.serif.com/" style="fill-rule:evenodd;clip-rule:evenodd;stroke-linejoin:round;stroke-miterlimit:2;"><path d="M226.397,96.93c-3.158,0.677 -5.434,3.492 -5.434,6.722c0,1.129 0.278,2.24 0.809,3.236c2.457,4.212 7.635,6.067 12.208,4.375c10,-2.208 16.667,3.542 23.167,10.458c4.292,4.417 -0.5,-31.791 -30.75,-24.791Z" style="fill:#437dbf;fill-rule:nonzero;"/><path d="M235.522,113.596c-0.021,-0.138 -0.021,-0.278 0,-0.416c-6.458,1.375 -12,0 -15.125,-5.459c-0.672,-1.253 -1.024,-2.653 -1.024,-4.076c0,-4.035 2.832,-7.558 6.774,-8.424c3.359,-0.784 6.802,-1.148 10.25,-1.083c-1.882,-4.017 -4.4,-7.703 -7.458,-10.917c-1.25,-1.291 -36.75,-36.291 -55.125,-51.625c-18.375,-15.333 -38.25,-6.291 -44.042,-5.041c-5.792,1.25 -79.167,32.708 -79.167,32.708c0,0 -14,5.625 -17.25,7.292c-4.682,-0.331 -9.221,-1.758 -13.25,-4.167c-1.041,-1.042 -5.166,-4.167 -7,-6.125c-2.583,-2.75 -0.75,-5.75 1.292,-8.792c4.028,-5.552 8.339,-10.892 12.917,-16c1.625,-1.458 21.625,-0.5 25.416,-0.458c10.125,0 13.167,-2.5 13.834,-12.875c0.666,-10.375 -9.709,-12.5 -11.167,-14c-1.458,-1.5 0,-2.75 -2.333,-3.792c-3.816,-0.697 -7.75,-0.337 -11.375,1.042c-2.584,1.042 -8.334,2.667 -7.875,5.083c2.084,4.318 6.087,7.409 10.791,8.334c6.125,1.458 7.625,0.416 9.084,-1.709c1.458,-2.125 3.375,-0.416 5.291,0c1.917,0.417 2.75,3.167 2.542,5.292c-0.097,2.969 -2.052,5.575 -4.875,6.5c-1.042,0.5 -24.042,0.25 -28.25,0c-3.506,-0.031 -6.801,1.711 -8.75,4.625c-2.333,2.542 -9.917,9.708 -16.292,16.917c-6.375,7.208 -2.083,11.791 0,15.625c2.084,3.833 13.334,13.083 18.042,17.708c1.817,1.852 4.186,3.066 6.75,3.458l0,1c0,2.75 3.792,37 0,40.25c-3.792,3.25 -9.375,-1.291 -12.75,2.125c-1.917,1.917 1.125,10.959 3.417,14.625c2.97,3.637 4.681,8.142 4.875,12.834c0,6.416 -3.084,16.041 -0.25,16.041l19.541,0c2.709,0 0,-8.333 -4.5,-9.625c-3.416,-0.958 -2.125,-9.416 -1.25,-12.5c1.667,-5.416 5.834,-6.333 9.834,-9.791c3.779,-4.02 9.985,-4.696 14.541,-1.584c5,3.542 2.959,9.417 2.709,13.709c-0.25,4.291 28.791,14.916 30.541,16.916c1.75,2 -2,6.209 1.875,7.834c4.291,0.507 8.626,0.507 12.917,0c4.167,0 4.167,-3.292 0.542,-7.584c-2.375,-2.958 -12.792,-13.208 -16.292,-16.666c-3.5,-3.459 -4.917,-4.417 -4.917,-7.709c1.194,-4.849 3.24,-9.449 6.042,-13.583c1.5,-2.25 7.958,-15.083 12.5,-15.083c5.792,0 25,7.333 25.708,10.541c0.709,3.209 -15.833,35.542 -16.083,37.5c-0.048,4.374 0.329,8.741 1.125,13.042c5.065,0.535 10.168,0.633 15.25,0.292c4.167,0 0.708,-4.459 -1.125,-6.292c-1.833,-1.833 -4.167,-1.792 -4.167,-4.833c0,-3.042 20.834,-30.375 22.959,-33.625c2.125,-3.25 4.916,-7.834 8.333,-7.334c3.417,0.5 5.125,0.292 6.625,2c1.5,1.709 0,43.042 2.583,46.542c1.042,1.333 14.959,0.375 17.75,0.375c2.792,0 2.5,-3.792 -1.125,-6.917c-1.977,-1.624 -3.427,-3.8 -4.166,-6.25c-0.739,-2.45 0.833,-23.208 0.833,-28.75c0,-5.541 4.167,-6.25 6.708,-7c2.542,-0.75 9.167,-2.291 8.917,2.5c0,2.25 0.25,12.042 0.25,24.417c0,9.292 14.125,0 14.125,0l18.292,-20.583c6.333,-7.042 6.125,-9.375 5.625,-15.417c-0.096,-0.363 -0.236,-0.713 -0.417,-1.042Z" style="fill:#437dbf;fill-rule:nonzero;"/></svg>