<svg xmlns="http://www.w3.org/2000/svg" viewBox="0 0 397.47 113.01"><defs><style>.cls-1{fill:#224069;}.cls-2{fill:#437dbf;}</style></defs><title>fv-color</title><g id="Layer_2" data-name="Layer 2"><g id="Layer_1-2" data-name="Layer 1"><path class="cls-1" d="M24.16,56.88H13.28v7.39h9.48V69.5H13.28V80.3H6.69V51.65H24.16Z" transform="translate(0 0)"/><path class="cls-1" d="M28.63,80.3V51.65h6.54V80.3Z" transform="translate(0 0)"/><path class="cls-1" d="M41.13,80.3V51.65h7.18L55,63.51c.93,1.67,1.75,3.24,2.44,4.7a31,31,0,0,1,1.34,3.08l.34.94a69.87,69.87,0,0,1-.42-8.72V51.65h6.55V80.3H58.05L51.2,68.44q-1.35-2.3-2.4-4.53c-.69-1.49-1.17-2.58-1.42-3.29L47,59.55a55.45,55.45,0,0,1,.63,8.89V80.3Z" transform="translate(0 0)"/><path class="cls-1" d="M89.34,80.3,87.6,74.44h-10L75.82,80.3H69l9.56-28.65h8.25L96.36,80.3ZM79.14,69.16H86l-.3-1c-.82-2.77-1.5-5.14-2-7.1s-.84-3.21-1-3.78l-.17-.85a117.71,117.71,0,0,1-3.14,11.73Z" transform="translate(0 0)"/><path class="cls-1" d="M100.1,80.3V51.65h7.19L114,63.51c.94,1.67,1.75,3.24,2.45,4.7a30.24,30.24,0,0,1,1.33,3.08l.35.94a67.65,67.65,0,0,1-.43-8.72V51.65h6.55V80.3H117l-6.84-11.86q-1.37-2.3-2.41-4.53c-.69-1.49-1.16-2.58-1.42-3.29L106,59.55a54.23,54.23,0,0,1,.64,8.89V80.3Z" transform="translate(0 0)"/><path class="cls-1" d="M150.91,52.88v6.29a13.35,13.35,0,0,0-7.1-2,7.73,7.73,0,0,0-5.78,2.4,8.83,8.83,0,0,0-2.34,6.44A8.41,8.41,0,0,0,138,72.33a8.17,8.17,0,0,0,6,2.32,11.45,11.45,0,0,0,6.85-2V79c-1.73,1.08-4.22,1.61-7.48,1.61a14.6,14.6,0,0,1-10.53-4.06,13.91,13.91,0,0,1-4.23-10.52,14.12,14.12,0,0,1,14.8-14.8Q148.32,51.26,150.91,52.88Z" transform="translate(0 0)"/><path class="cls-1" d="M156.22,80.3V51.65h6.55V80.3Z" transform="translate(0 0)"/><path class="cls-1" d="M187.31,80.3l-1.75-5.86h-10l-1.75,5.86h-6.84l9.57-28.65h8.24l9.57,28.65ZM177.1,69.16H184l-.3-1q-1.23-4.15-2-7.1c-.52-1.95-.84-3.21-.95-3.78l-.18-.85a117.71,117.71,0,0,1-3.14,11.73Z" transform="translate(0 0)"/><path class="cls-1" d="M204.61,74.56H215.2V80.3H198.06V51.65h6.55Z" transform="translate(0 0)"/><path class="cls-1" d="M253.89,51.65,244.24,80.3H237l-9.52-28.65h7L238,63.08c.62,2,1.16,4,1.61,5.89s.75,3.26.9,4.11l.21,1.31a85.82,85.82,0,0,1,2.76-11.31l3.45-11.43Z" transform="translate(0 0)"/><path class="cls-1" d="M257.89,80.3V51.65h6.54V80.3Z" transform="translate(0 0)"/><path class="cls-1" d="M285.14,80.3l-6.21-10h-2v10h-6.54V51.65h9.9A11.29,11.29,0,0,1,288,54.2a8.4,8.4,0,0,1,2.91,6.63q0,6.12-5.23,8.46l7.27,11ZM276.93,57V65H280q4.24,0,4.25-4.17A3.75,3.75,0,0,0,283.18,58a4.22,4.22,0,0,0-3-1Z" transform="translate(0 0)"/><path class="cls-1" d="M315.58,51.65v5.27h-7V80.3H302V56.92h-7V51.65Z" transform="translate(0 0)"/><path class="cls-1" d="M336.16,69.25V51.65h6.55V69.21q0,5.61-3.15,8.56a11.9,11.9,0,0,1-8.5,3,12,12,0,0,1-8.46-2.93c-2.13-2-3.19-4.72-3.19-8.3V51.65H326V69.46q0,5.33,5.1,5.32C334.46,74.78,336.16,72.93,336.16,69.25Z" transform="translate(0 0)"/><path class="cls-1" d="M354.62,75.07h11.22V80.3H348V51.65h17.64v5.23H354.62v6.5h9.86v5.19h-9.86Z" transform="translate(0 0)"/><path class="cls-1" d="M387.7,52.92V59a14.08,14.08,0,0,0-7.15-2,4,4,0,0,0-2.53.68,2.11,2.11,0,0,0-.87,1.74,2.39,2.39,0,0,0,1.06,1.89,16.21,16.21,0,0,0,3.19,1.77c.88.39,1.61.74,2.19,1a18.58,18.58,0,0,1,2,1.23,8,8,0,0,1,1.79,1.66,8.18,8.18,0,0,1,1.12,2.15,8.33,8.33,0,0,1-2.38,9,11.36,11.36,0,0,1-7.57,2.4,16.75,16.75,0,0,1-8.24-1.78V72.27a13.75,13.75,0,0,0,8.24,2.8,3.82,3.82,0,0,0,2.47-.78,2.53,2.53,0,0,0,1-2.06,2.37,2.37,0,0,0-.13-.81,1.79,1.79,0,0,0-.47-.73,5.58,5.58,0,0,0-.66-.57,7.61,7.61,0,0,0-.93-.55l-1-.53-1.26-.6-1.34-.59a13.41,13.41,0,0,1-4.44-3.15,7.17,7.17,0,0,1-1.68-5,7.43,7.43,0,0,1,2.72-6c1.82-1.52,4.32-2.27,7.53-2.27A17.48,17.48,0,0,1,387.7,52.92Z" transform="translate(0 0)"/><path class="cls-1" d="M54.33,23.29a1.65,1.65,0,0,0-1.11,2.39,2.42,2.42,0,0,0,2.93,1.05c2.4-.53,4,.85,5.56,2.51C62.74,30.3,61.59,21.61,54.33,23.29Z" transform="translate(0 0)"/><path class="cls-1" d="M56.52,27.29a.34.34,0,0,1,0-.1c-1.55.33-2.88,0-3.63-1.31a2.07,2.07,0,0,1,1.38-3,10,10,0,0,1,2.46-.26A9.88,9.88,0,0,0,54.94,20c-.3-.31-8.82-8.71-13.23-12.39S32.53,6.1,31.14,6.4s-19,7.85-19,7.85S8.78,15.6,8,16H8a7.18,7.18,0,0,1-3.18-1c-.25-.25-1.24-1-1.68-1.47-.62-.66-.18-1.38.31-2.11A47.88,47.88,0,0,1,6.55,7.58c.39-.35,5.19-.12,6.1-.11,2.43,0,3.16-.6,3.32-3.09s-2.33-3-2.68-3.36,0-.66-.56-.91A5.1,5.1,0,0,0,10,.36C9.38.61,8,1,8.11,1.58a3.66,3.66,0,0,0,2.59,2c1.47.35,1.83.1,2.18-.41s.81-.1,1.27,0,.66.76.61,1.27A1.7,1.7,0,0,1,13.59,6c-.25.12-5.77.06-6.78,0a2.5,2.5,0,0,0-2.1,1.11C4.15,7.72,2.33,9.44.8,11.17S.3,14,.8,14.92,4,18.06,5.13,19.17A2.88,2.88,0,0,0,6.75,20c0,.1,0,.18,0,.24,0,.66.91,8.88,0,9.66s-2.25-.31-3.06.51c-.46.46.27,2.63.82,3.51A5.21,5.21,0,0,1,5.68,37c0,1.54-.74,3.85-.06,3.85h4.69c.65,0,0-2-1.08-2.31-.82-.23-.51-2.26-.3-3,.4-1.3,1.4-1.52,2.36-2.35a2.7,2.7,0,0,1,3.49-.38c1.2.85.71,2.26.65,3.29s6.91,3.58,7.33,4.06-.48,1.49.45,1.88a13.21,13.21,0,0,0,3.1,0c1,0,1-.79.13-1.82-.57-.71-3.07-3.17-3.91-4s-1.18-1.06-1.18-1.85a10.12,10.12,0,0,1,1.45-3.26c.36-.54,1.91-3.62,3-3.62,1.39,0,6,1.76,6.17,2.53s-3.8,8.53-3.86,9a16.22,16.22,0,0,0,.27,3.13,21.28,21.28,0,0,0,3.66.07c1,0,.17-1.07-.27-1.51s-1-.43-1-1.16,5-7.29,5.51-8.07,1.18-1.88,2-1.76,1.23.07,1.59.48,0,10.33.62,11.17c.25.32,3.59.09,4.26.09s.6-.91-.27-1.66a3.1,3.1,0,0,1-1-1.5s.2-5.57.2-6.9,1-1.5,1.61-1.68,2.2-.55,2.14.6c0,.54.06,2.89.06,5.86,0,2.23,3.39,0,3.39,0l4.39-4.94c1.52-1.69,1.47-2.25,1.35-3.7A1.1,1.1,0,0,0,56.52,27.29Z" transform="translate(0 0)"/><path class="cls-2" d="M254.09,104a2.94,2.94,0,0,1,1.08,1.13,3.86,3.86,0,0,1,0,3.5,3,3,0,0,1-1.17,1.16,3.24,3.24,0,0,1-1.59.4,3,3,0,0,1-1.29-.26,2.73,2.73,0,0,1-1-.71v.82h-1.63V98.72h1.63v5.84a2.79,2.79,0,0,1,1-.67,3.87,3.87,0,0,1,1.43-.26A3,3,0,0,1,254.09,104Zm-.72,4.25a2.1,2.1,0,0,0,.29-2.4,1.93,1.93,0,0,0-.68-.71,2,2,0,0,0-1-.25,2.14,2.14,0,0,0-1.2.35,1.76,1.76,0,0,0-.7.93v1.37a1.84,1.84,0,0,0,.71.93,2,2,0,0,0,1.19.34A1.79,1.79,0,0,0,253.37,108.27Z" transform="translate(0 0)"/><path class="cls-2" d="M263.36,103.91l-4,9.1h-1.6l1.44-3.22-2.85-5.88h1.84l1.83,4.07,1.83-4.07Z" transform="translate(0 0)"/><path class="cls-2" d="M275.43,107.07h-4.38L270,109.65h-2.57l6-13.73h.14l6,13.73h-3Zm-.86-2.19-1.27-3.21L272,104.88Z" transform="translate(0 0)"/><path class="cls-2" d="M288.32,96.44V99H285.1v10.69h-2.6V99h-3.08V96.44Z" transform="translate(0 0)"/><path class="cls-2" d="M293.43,96.44v10.7h6.21v2.51h-8.81V96.44Z" transform="translate(0 0)"/><path class="cls-2" d="M308.86,107.07h-4.38l-1.07,2.58h-2.57l6-13.73h.14l6,13.73h-3Zm-.86-2.19-1.27-3.21-1.33,3.21Z" transform="translate(0 0)"/><path class="cls-2" d="M318.87,98.69a2.22,2.22,0,0,0-1.33.34,1.18,1.18,0,0,0-.48,1,1.33,1.33,0,0,0,.69,1.1,8.74,8.74,0,0,0,1.84.91,8,8,0,0,1,1.6.78,3.49,3.49,0,0,1,1.1,1.21,3.87,3.87,0,0,1,.44,2,3.51,3.51,0,0,1-.53,1.89,3.67,3.67,0,0,1-1.55,1.38,5.42,5.42,0,0,1-2.44.51,7.92,7.92,0,0,1-2.35-.35,7.17,7.17,0,0,1-2.17-1.06l1.15-2a6.42,6.42,0,0,0,1.56.83,4.72,4.72,0,0,0,1.58.32,2.83,2.83,0,0,0,1.43-.35A1.21,1.21,0,0,0,320,106c0-.68-.64-1.28-1.92-1.78a16.5,16.5,0,0,1-1.88-.86,3.83,3.83,0,0,1-1.3-1.18,3.25,3.25,0,0,1-.55-1.94,3.57,3.57,0,0,1,1.12-2.75,4.58,4.58,0,0,1,3-1.13,7.87,7.87,0,0,1,2.46.33,8.57,8.57,0,0,1,1.92,1l-1,2A6.37,6.37,0,0,0,318.87,98.69Z" transform="translate(0 0)"/><path class="cls-2" d="M338.86,97.64a4.13,4.13,0,0,1,1.33,3.25,5.35,5.35,0,0,1-.46,2.22,3.86,3.86,0,0,1-1.49,1.7,4.83,4.83,0,0,1-2.66.66h-1.87v4.18h-2.6V96.44h4A5.38,5.38,0,0,1,338.86,97.64Zm-2.11,5a2,2,0,0,0,.64-.78,2.19,2.19,0,0,0,.2-.86,2.57,2.57,0,0,0-.41-1.36,1.77,1.77,0,0,0-1.6-.65h-1.87v4h1.85A2,2,0,0,0,336.75,102.61Z" transform="translate(0 0)"/><path class="cls-2" d="M342.62,99.71a6.88,6.88,0,0,1,2.46-2.48,6.55,6.55,0,0,1,6.73,0,7,7,0,0,1,2.48,2.48,6.61,6.61,0,0,1,0,6.73,7,7,0,0,1-2.48,2.45,6.76,6.76,0,0,1-6.74,0,6.85,6.85,0,0,1-2.45-2.45,6.74,6.74,0,0,1,0-6.73Zm2.34,5.47a4.13,4.13,0,0,0,1.48,1.54,4.06,4.06,0,0,0,2.09.56,3.83,3.83,0,0,0,2-.56,4.07,4.07,0,0,0,1.44-1.53,4.46,4.46,0,0,0,.52-2.12,4.38,4.38,0,0,0-.54-2.16,4.2,4.2,0,0,0-1.46-1.53,4,4,0,0,0-4.11,0,4,4,0,0,0-1.46,1.53,4.38,4.38,0,0,0-.54,2.16A4.15,4.15,0,0,0,345,105.18Z" transform="translate(0 0)"/><path class="cls-2" d="M360.41,96.44v13.21h-2.6V96.44Z" transform="translate(0 0)"/><path class="cls-2" d="M375.72,96.44v13.75h-.07l-9.24-8.34,0,7.8h-2.64V95.92h.11l9.22,8.47,0-8Z" transform="translate(0 0)"/><path class="cls-2" d="M387.13,96.44V99h-3.21v10.69h-2.6V99h-3.09V96.44Z" transform="translate(0 0)"/><path class="cls-2" d="M387.4,109.4a1.58,1.58,0,1,1,1.57-1.57A1.57,1.57,0,0,1,387.4,109.4Zm0-2.83a1.26,1.26,0,1,0,1.25,1.26A1.26,1.26,0,0,0,387.4,106.57Z" transform="translate(0 0)"/><path class="cls-2" d="M387.31,107.7a.31.31,0,0,0,.19,0,.2.2,0,0,0,.06-.16.22.22,0,0,0-.06-.17.32.32,0,0,0-.19,0h-.18v.42h.18m-.18.29v.63h-.42V107h.64a.77.77,0,0,1,.48.11.38.38,0,0,1,.15.34.4.4,0,0,1-.08.27.5.5,0,0,1-.23.16.24.24,0,0,1,.15.09.51.51,0,0,1,.14.21l.23.47h-.45l-.2-.41a.5.5,0,0,0-.12-.17.29.29,0,0,0-.17-.05h-.12" transform="translate(0 0)"/><rect class="cls-1" x="5.97" y="87.96" width="383" height="2.54"/><path class="cls-1" d="M393.3,52.2v.54h-1.05v2.72h-.64V52.74h-1V52.2Zm3.52,3.26-.12-1.91c0-.26,0-.56,0-.92h0c-.08.29-.18.68-.27,1l-.59,1.81h-.67l-.58-1.86c-.06-.24-.17-.64-.24-.93h0c0,.3,0,.63,0,.92l-.12,1.91h-.62l.24-3.26h1l.56,1.6a8.06,8.06,0,0,1,.21.82h0c.08-.28.16-.57.22-.8l.56-1.62h1l.24,3.26Z" transform="translate(0 0)"/></g></g></svg>